HIERARCHY
ROOT ui
{
	 OFFSET 0 0 0
	 CHANNELS 3 XPosition YPosition Z Position
	 EndSite
	 {
	 OFFSET 0 -1 0
	 }
}
ROOT li
{
	 OFFSET 0 0 0
	 CHANNELS 3 XPosition YPosition Z Position
	 EndSite
	 {
	 OFFSET 0 -1 0
	 }
}
ROOT ul
{
	 OFFSET 0 0 0
	 CHANNELS 3 XPosition YPosition Z Position
	 EndSite
	 {
	 OFFSET 0 -1 0
	 }
}
ROOT ll
{
	 OFFSET 0 0 0
	 CHANNELS 3 XPosition YPosition Z Position
	 EndSite
	 {
	 OFFSET 0 -1 0
	 }
}
ROOT tt
{
	 OFFSET 0 0 0
	 CHANNELS 3 XPosition YPosition Z Position
	 EndSite
	 {
	 OFFSET 0 -1 0
	 }
}
ROOT tb
{
	 OFFSET 0 0 0
	 CHANNELS 3 XPosition YPosition Z Position
	 EndSite
	 {
	 OFFSET 0 -1 0
	 }
}
ROOT td
{
	 OFFSET 0 0 0
	 CHANNELS 3 XPosition YPosition Z Position
	 EndSite
	 {
	 OFFSET 0 -1 0
	 }
}
ROOT v
{
	 OFFSET 0 0 0
	 CHANNELS 3 XPosition YPosition Z Position
	 EndSite
	 {
	 OFFSET 0 -1 0
	 }
}
ROOT bn
{
	 OFFSET 0 0 0
	 CHANNELS 3 XPosition YPosition Z Position
	 EndSite
	 {
	 OFFSET 0 -1 0
	 }
}
MOTION
Frames: 18
Frame Time: 0.002
-0.0017707949876785277	-8.548830151557923E-4	0		0.46751806640625	-2.32423046875	0		-1.0085204467773436	0.02238570022583008	0		-0.6592311401367188	-2.29993505859375	0		1.7605867919921876	-0.5791140747070312	0		3.34192724609375	-0.04711116409301758	0		4.7542509765625	-0.040291423797607424	0		5.61162548828125	0.09104819488525391	0		-0.10074109649658203	5.90070458984375	0		
0.062020278930664065	0.0031742610931396486	0		0.4855389709472656	-2.318376220703125	0		-1.0088073120117187	0.02241636085510254	0		-0.6973064575195312	-2.299226318359375	0		1.7223758544921874	-0.5771906127929688	0		3.310651123046875	-0.04616653060913086	0		4.7539697265625	-0.039749515533447265	0		5.61133251953125	0.09166616821289063	0		-0.10153242492675782	5.90181591796875	0		
-0.005431264877319336	-0.0035676350593566893	0		0.4673284912109375	-2.323909423828125	0		-1.04612939453125	0.0230662784576416	0		-0.659425048828125	-2.299818115234375	0		1.7631317138671876	-0.5756102905273438	0		3.318142578125	-0.05687874984741211	0		4.7526142578125	-0.04117736434936523	0		5.6068466796875	0.0833692626953125	0		-0.08723515319824218	5.9116669921875	0		
-0.0027453320026397704	-5.069090127944947E-4	0		0.48113174438476564	-2.32698828125	0		-1.0753740234375	0.03056686019897461	0		-0.7273934936523437	-2.288624267578125	0		1.7309779052734375	-0.565793212890625	0		3.329697509765625	-0.06165346908569336	0		4.744373046875	-0.03348089981079101	0		5.619607421875	0.09179279327392578	0		-0.07202751922607421	5.91950048828125	0		
-0.0031508200168609618	-3.9886400103569033E-4	0		0.4731180419921875	-2.316701416015625	0		-1.0017929077148438	0.029332508087158204	0		-0.6526402587890625	-2.292841552734375	0		1.7686046142578125	-0.5671552124023438	0		3.324566650390625	-0.04514422988891602	0		4.7618505859375	-0.040217967987060545	0		5.61919287109375	0.09244020080566406	0		-0.08913268280029298	5.91187060546875	0		
-0.003599302053451538	-2.943969964981079E-4	0		0.49577093505859376	-2.323933349609375	0		-1.04330517578125	0.0260250244140625	0		-0.7298591918945313	-2.2915166015625	0		1.724116455078125	-0.57214794921875	0		3.2908271484375	-0.062169971466064455	0		4.7524404296875	-0.037508979797363284	0		5.61460302734375	0.08514915466308594	0		-0.27275323486328124	5.87700341796875	0		
-0.007141120910644531	-0.0031428589820861816	0		0.4845965576171875	-2.31760400390625	0		-1.0108543701171875	0.02248314094543457	0		-0.6602630004882812	-2.299641357421875	0		1.7616390380859375	-0.5745139770507812	0		3.309420654296875	-0.05707580184936523	0		4.745068359375	-0.029847816467285158	0		5.609251953125	0.09485755157470703	0		-0.10637113952636719	5.90131005859375	0		
-0.014462221145629882	0.010069467544555665	0		0.4931369934082031	-2.325607666015625	0		-1.0443389892578125	0.02603416061401367	0		-0.7304663696289062	-2.29144970703125	0		1.723192626953125	-0.57162939453125	0		3.31885498046875	-0.05884109115600586	0		4.746287109375	-0.04434956741333008	0		5.61355810546875	0.08638382720947266	0		-0.225607177734375	5.89234521484375	0		
-0.0052064828872680664	3.166999900713563E-6	0		0.5036616516113281	-2.331646728515625	0		-1.0079244384765624	0.02543443489074707	0		-0.6568876342773438	-2.294628173828125	0		1.728778076171875	-0.5644810180664063	0		3.301660888671875	-0.035179039001464844	0		4.743958984375	-0.028807819366455076	0		5.61710302734375	0.09490377807617187	0		-0.093356201171875	5.91224072265625	0		
-0.005822055816650391	9.778399765491485E-5	0		0.49640472412109377	-2.321396728515625	0		-1.0455372314453124	0.026048395156860353	0		-0.7271881713867188	-2.28644775390625	0		1.7312745361328126	-0.560291015625	0		3.317671142578125	-0.058082271575927734	0		4.754328125	-0.02949571418762207	0		5.6074970703125	0.09661454010009765	0		-0.09446556854248046	5.912328125	0		
-0.006468630790710449	1.8897999823093415E-4	0		0.4850419006347656	-2.315087890625	0		-1.0132388305664062	0.022521881103515624	0		-0.6598236694335937	-2.297515869140625	0		1.7245435791015624	-0.5679630126953125	0		3.32127197265625	-0.04279312133789062	0		4.7485546875	-0.03694308853149414	0		5.6068427734375	0.09715299224853516	0		-0.11075965881347656	5.90165673828125	0		
-0.010186214447021485	-0.0026755390167236327	0		0.4644202880859375	-2.322640380859375	0		-1.05496923828125	0.019195114135742188	0		-0.73222998046875	-2.291316650390625	0		1.7239168701171874	-0.5677459106445313	0		3.29743115234375	-0.05308289337158203	0		4.73792138671875	-0.034336864471435545	0		5.60205322265625	0.09072821044921875	0		-0.24521183776855468	5.8818857421875	0		
-0.007820825099945068	3.5677000880241394E-4	0		0.49086593627929687	-2.324959716796875	0		-1.0145942993164063	0.02254273796081543	0		-0.6967876586914062	-2.293864990234375	0		1.7232742919921875	-0.5675426025390625	0		3.30084814453125	-0.04683361053466797	0		4.7303544921875	-0.02680923080444336	0		5.59549365234375	0.09930062866210937	0		-0.09681446838378906	5.91155078125	0		
-0.008504660606384277	4.3161600828170774E-4	0		0.44048495483398437	-2.315052734375	0		-1.0733681640625	0.01748089599609375	0		-0.7271732788085937	-2.284356201171875	0		1.731818603515625	-0.5554999389648437	0		3.32398828125	-0.05792478561401367	0		4.74039892578125	-0.04359786605834961	0		5.6137685546875	0.09743868255615235	0		-0.21607858276367187	5.9005107421875	0		
0.0028705329895019533	0.003307701110839844	0		0.4959146728515625	-2.317850830078125	0		-1.0119046630859374	0.02549447250366211	0		-0.7256747436523437	-2.282364013671875	0		1.7252774658203125	-0.5492320556640625	0		3.3018017578125	-0.027308570861816407	0		4.7440966796875	-0.02030984878540039	0		5.613091796875	0.09784617614746094	0		-0.09891382598876954	5.9116826171875	0		
-0.009818885803222656	5.593609809875489E-4	0		0.455500244140625	-2.3111279296875	0		-1.0535916748046874	0.023150896072387694	0		-0.6943068237304687	-2.289851318359375	0		1.7275054931640625	-0.5591226196289063	0		3.278781494140625	-0.05071284484863281	0		4.73935986328125	-0.025922687530517578	0		5.60831689453125	0.09028166198730468	0		-0.11604081726074218	5.90199267578125	0		
-0.010417478561401367	6.099810004234314E-4	0		0.4799352111816406	-2.316449462890625	0		-1.02532177734375	0.014690741539001465	0		-0.6947905883789063	-2.2898349609375	0		1.7269349365234374	-0.5589849243164062	0		3.302341064453125	-0.04087882232666016	0		4.73465234375	-0.03256969833374023	0		5.59874658203125	0.09275630187988282	0		-0.2502671508789063	5.88214794921875	0		
-0.03506059646606445	-0.005970193862915039	0		0.4344620361328125	-2.31867626953125	0		-1.0628375244140624	0.016269323348999023	0		-0.6582593994140625	-2.292410400390625	0		1.72336181640625	-0.562819091796875	0		3.293634521484375	-0.051562362670898435	0		4.72413525390625	-0.031158760070800783	0		5.58817626953125	0.09120645904541015	0		-0.2358951416015625	5.89293896484375	0		
